<svg width="1234" height="660" viewBox="0 0 1234 660" fill="none" xmlns="http://www.w3.org/2000/svg">
<path d="M700.888 540.534H731.483C743.76 540.534 752.983 544.287 759.216 551.729C765.45 559.171 768.566 570.302 768.566 585.059C768.566 596.509 767.167 605.795 764.368 612.792C761.57 619.789 757.244 625.005 751.265 628.312C745.286 631.62 737.463 633.274 727.731 633.274H700.825V540.534H700.888ZM729.893 621.443C738.353 621.443 744.523 618.58 748.339 612.856C752.156 607.131 754.128 597.844 754.128 585.059C754.128 573.737 752.283 565.468 748.594 560.253C744.905 554.973 738.989 552.365 730.975 552.365H715.327V621.506H729.893V621.443Z" fill="white"/>
<path d="M700.888 540.534H731.483C743.76 540.534 752.983 544.287 759.216 551.729C765.45 559.171 768.566 570.302 768.566 585.059C768.566 596.509 767.167 605.795 764.368 612.792C761.57 619.789 757.244 625.005 751.265 628.312C745.286 631.62 737.463 633.274 727.731 633.274H700.825V540.534H700.888ZM729.893 621.443C738.353 621.443 744.523 618.58 748.339 612.856C752.156 607.131 754.128 597.844 754.128 585.059C754.128 573.737 752.283 565.468 748.594 560.253C744.905 554.973 738.989 552.365 730.975 552.365H715.327V621.506H729.893V621.443Z" fill="#062CFF"/>
<path d="M839.107 605.159H791.974C792.674 611.138 794.582 615.718 797.762 618.771C800.879 621.888 805.204 623.415 810.675 623.415C818.435 623.415 824.732 620.361 829.502 614.255L836.817 621.252C834.273 625.386 830.584 628.63 825.813 630.984C821.043 633.337 815.763 634.482 810.039 634.482C800.179 634.482 792.419 631.429 786.949 625.386C781.415 619.344 778.68 610.948 778.68 600.134C778.68 589.385 781.479 580.925 787.013 574.755C792.547 568.649 800.179 565.532 809.911 565.532C819.071 565.532 826.258 568.585 831.411 574.628C836.563 580.671 839.171 589.13 839.171 600.007V605.159H839.107ZM826.704 594.855C826.704 589.13 825.177 584.614 822.06 581.37C818.944 578.126 814.745 576.472 809.339 576.472C804.314 576.472 800.307 578.126 797.317 581.497C794.328 584.869 792.483 589.639 791.91 595.809H826.767V594.855H826.704Z" fill="white"/>
<path d="M839.107 605.159H791.974C792.674 611.138 794.582 615.718 797.762 618.771C800.879 621.888 805.204 623.415 810.675 623.415C818.435 623.415 824.732 620.361 829.502 614.255L836.817 621.252C834.273 625.386 830.584 628.63 825.813 630.984C821.043 633.337 815.763 634.482 810.039 634.482C800.179 634.482 792.419 631.429 786.949 625.386C781.415 619.344 778.68 610.948 778.68 600.134C778.68 589.385 781.479 580.925 787.013 574.755C792.547 568.649 800.179 565.532 809.911 565.532C819.071 565.532 826.258 568.585 831.411 574.628C836.563 580.671 839.171 589.13 839.171 600.007V605.159H839.107ZM826.704 594.855C826.704 589.13 825.177 584.614 822.06 581.37C818.944 578.126 814.745 576.472 809.339 576.472C804.314 576.472 800.307 578.126 797.317 581.497C794.328 584.869 792.483 589.639 791.91 595.809H826.767V594.855H826.704Z" fill="#062CFF"/>
<path d="M856.217 630.284C853.673 627.422 852.401 623.16 852.401 617.499V535H865.504V617.499C865.504 620.234 866.013 622.206 867.031 623.351C868.048 624.496 869.702 625.068 871.992 625.068C873.836 625.068 876.126 624.496 878.861 623.351L880.833 630.92C877.398 633.401 872.946 634.609 867.603 634.609C862.578 634.546 858.762 633.147 856.217 630.284Z" fill="white"/>
<path d="M856.217 630.284C853.673 627.422 852.401 623.16 852.401 617.499V535H865.504V617.499C865.504 620.234 866.013 622.206 867.031 623.351C868.048 624.496 869.702 625.068 871.992 625.068C873.836 625.068 876.126 624.496 878.861 623.351L880.833 630.92C877.398 633.401 872.946 634.609 867.603 634.609C862.578 634.546 858.762 633.147 856.217 630.284Z" fill="#062CFF"/>
<path d="M892.919 554.592C891.328 553.065 890.565 551.03 890.565 548.485C890.565 545.941 891.328 543.906 892.919 542.379C894.509 540.852 896.671 540.153 899.407 540.153C902.142 540.153 904.304 540.916 905.958 542.379C907.612 543.906 908.439 545.941 908.439 548.485C908.439 551.03 907.612 553.065 905.958 554.592C904.304 556.118 902.142 556.818 899.407 556.818C896.671 556.818 894.509 556.118 892.919 554.592ZM892.919 567.059H906.022V633.274H892.919V567.059Z" fill="white"/>
<path d="M892.919 554.592C891.328 553.065 890.565 551.03 890.565 548.485C890.565 545.941 891.328 543.906 892.919 542.379C894.509 540.852 896.671 540.153 899.407 540.153C902.142 540.153 904.304 540.916 905.958 542.379C907.612 543.906 908.439 545.941 908.439 548.485C908.439 551.03 907.612 553.065 905.958 554.592C904.304 556.118 902.142 556.818 899.407 556.818C896.671 556.818 894.509 556.118 892.919 554.592ZM892.919 567.059H906.022V633.274H892.919V567.059Z" fill="#062CFF"/>
<path d="M980.315 567.059L954.872 633.274H943.232L917.789 567.059H931.274L949.02 617.626L966.639 567.059H980.315Z" fill="white"/>
<path d="M980.315 567.059L954.872 633.274H943.232L917.789 567.059H931.274L949.02 617.626L966.639 567.059H980.315Z" fill="#062CFF"/>
<path d="M1044.24 605.159H997.107C997.807 611.138 999.715 615.718 1002.9 618.771C1006.01 621.888 1010.34 623.415 1015.81 623.415C1023.57 623.415 1029.87 620.361 1034.64 614.255L1041.95 621.252C1039.41 625.386 1035.72 628.63 1030.95 630.984C1026.18 633.337 1020.9 634.482 1015.17 634.482C1005.31 634.482 997.553 631.429 992.082 625.386C986.549 619.344 983.813 610.948 983.813 600.134C983.813 589.385 986.612 580.925 992.146 574.755C997.68 568.649 1005.31 565.532 1015.04 565.532C1024.2 565.532 1031.39 568.585 1036.54 574.628C1041.7 580.671 1044.3 589.13 1044.3 600.007V605.159H1044.24ZM1031.77 594.855C1031.77 589.13 1030.25 584.614 1027.13 581.37C1024.01 578.126 1019.82 576.472 1014.41 576.472C1009.38 576.472 1005.38 578.126 1002.39 581.497C999.397 584.869 997.553 589.639 996.98 595.809H1031.84V594.855H1031.77Z" fill="white"/>
<path d="M1044.24 605.159H997.107C997.807 611.138 999.715 615.718 1002.9 618.771C1006.01 621.888 1010.34 623.415 1015.81 623.415C1023.57 623.415 1029.87 620.361 1034.64 614.255L1041.95 621.252C1039.41 625.386 1035.72 628.63 1030.95 630.984C1026.18 633.337 1020.9 634.482 1015.17 634.482C1005.31 634.482 997.553 631.429 992.082 625.386C986.549 619.344 983.813 610.948 983.813 600.134C983.813 589.385 986.612 580.925 992.146 574.755C997.68 568.649 1005.31 565.532 1015.04 565.532C1024.2 565.532 1031.39 568.585 1036.54 574.628C1041.7 580.671 1044.3 589.13 1044.3 600.007V605.159H1044.24ZM1031.77 594.855C1031.77 589.13 1030.25 584.614 1027.13 581.37C1024.01 578.126 1019.82 576.472 1014.41 576.472C1009.38 576.472 1005.38 578.126 1002.39 581.497C999.397 584.869 997.553 589.639 996.98 595.809H1031.84V594.855H1031.77Z" fill="#062CFF"/>
<path d="M1057.09 583.215C1057.09 575.709 1056.96 570.303 1056.71 567.059H1069.05C1069.43 570.621 1069.56 574.501 1069.56 578.699V580.035H1069.94C1071.72 575.518 1074.52 572.02 1078.33 569.476C1082.15 566.931 1086.67 565.723 1091.88 565.723C1093.28 565.723 1094.55 565.85 1095.7 566.105V576.727C1095.06 576.536 1093.73 576.472 1091.56 576.472C1087.68 576.472 1084.06 577.617 1080.75 579.844C1077.44 582.07 1074.84 585.123 1072.93 589.003C1071.02 592.82 1070.06 597.081 1070.06 601.661V633.337H1056.96V583.215H1057.09Z" fill="white"/>
<path d="M1057.09 583.215C1057.09 575.709 1056.96 570.303 1056.71 567.059H1069.05C1069.43 570.621 1069.56 574.501 1069.56 578.699V580.035H1069.94C1071.72 575.518 1074.52 572.02 1078.33 569.476C1082.15 566.931 1086.67 565.723 1091.88 565.723C1093.28 565.723 1094.55 565.85 1095.7 566.105V576.727C1095.06 576.536 1093.73 576.472 1091.56 576.472C1087.68 576.472 1084.06 577.617 1080.75 579.844C1077.44 582.07 1074.84 585.123 1072.93 589.003C1071.02 592.82 1070.06 597.081 1070.06 601.661V633.337H1056.96V583.215H1057.09Z" fill="#062CFF"/>
<path d="M1158.8 567.059L1134.31 635.118C1128.39 651.465 1118.98 659.607 1105.94 659.607C1103.46 659.607 1100.66 659.225 1097.48 658.399V648.221C1099.32 648.921 1101.55 649.303 1104.09 649.303C1108.42 649.303 1112.11 647.776 1115.1 644.659C1118.09 641.543 1120.95 636.454 1123.69 629.33L1099.07 567.122H1113.13L1129.79 615.209L1144.61 567.122H1158.8V567.059Z" fill="white"/>
<path d="M1158.8 567.059L1134.31 635.118C1128.39 651.465 1118.98 659.607 1105.94 659.607C1103.46 659.607 1100.66 659.225 1097.48 658.399V648.221C1099.32 648.921 1101.55 649.303 1104.09 649.303C1108.42 649.303 1112.11 647.776 1115.1 644.659C1118.09 641.543 1120.95 636.454 1123.69 629.33L1099.07 567.122H1113.13L1129.79 615.209L1144.61 567.122H1158.8V567.059Z" fill="#062CFF"/>
<path d="M45.6065 431.448H45.1613C20.2908 431.448 0.0637207 411.284 0.0637207 386.35V270.076C0.0637207 245.206 20.2272 224.979 45.1613 224.979H45.6065C70.477 224.979 90.7041 245.142 90.7041 270.076V386.35C90.6404 411.284 70.477 431.448 45.6065 431.448Z" fill="#062CFF"/>
<path d="M45.6065 315.556H45.1613C20.2908 315.556 0.0637207 295.392 0.0637207 270.458V154.311C0.0637207 129.441 20.2272 109.214 45.1613 109.214H45.6065C70.477 109.214 90.7041 129.377 90.7041 154.311V270.522C90.6404 295.392 70.477 315.556 45.6065 315.556Z" fill="#062CFF"/>
<path d="M90.6405 45.352C90.6405 70.3496 70.3497 90.6403 45.3521 90.6403C20.3544 90.6403 0.0637207 70.3496 0.0637207 45.352C0.0637207 20.3543 20.3544 0.0635986 45.3521 0.0635986C70.3497 0.0635986 90.6405 20.2907 90.6405 45.352Z" fill="white"/>
<path d="M47.3238 90.6403H43.3165C19.4002 90.6403 0 71.2401 0 47.3238V43.3165C0 19.4002 19.4002 0 43.3165 0H47.3238C71.2401 0 90.6403 19.4002 90.6403 43.3165V47.3238C90.6403 71.2401 71.2401 90.6403 47.3238 90.6403Z" fill="#062CFF"/>
<path d="M47.3238 315.619H43.3165C19.4002 315.619 0 296.219 0 272.303V268.295C0 244.379 19.4002 224.979 43.3165 224.979H47.3238C71.2401 224.979 90.6403 244.379 90.6403 268.295V272.303C90.6403 296.219 71.2401 315.619 47.3238 315.619Z" fill="#00FFF3"/>
<path d="M403.143 431.448H336.928L260.853 216.519V431.448H168.496V24.8704H264.924L403.143 431.448Z" fill="#062CFF"/>
<path d="M475.21 24.8704H571.638V431.448H479.281V216.519L403.143 431.448H336.928L475.21 24.8704Z" fill="#062CFF"/>
<path d="M731.929 141.017H649.43V431.448H731.929V141.017Z" fill="#062CFF"/>
<path d="M823.714 416.946C809.784 403.397 802.787 383.806 802.787 358.3V0.44519H885.286V360.017C885.286 373.947 893.809 380.944 910.856 380.944C920.524 380.944 931.973 378.209 945.14 372.802L957.353 415.801C938.779 430.112 914.163 437.3 883.568 437.3C857.553 437.236 837.644 430.494 823.714 416.946Z" fill="#062CFF"/>
<path d="M1233.79 316.446H1034C1037.5 333.874 1044.75 346.85 1055.75 355.374C1066.82 363.897 1081.77 368.159 1100.79 368.159C1117.45 368.159 1131.95 365.424 1144.36 360.017C1156.76 354.61 1169.16 345.324 1181.5 332.157L1225.65 374.011C1214.39 392.966 1196.9 408.295 1173.11 419.871C1149.32 431.512 1123.43 437.3 1095.57 437.3C1049.9 437.3 1014.03 424.07 988.139 397.482C962.187 370.957 949.211 334.256 949.211 287.378C949.211 240.117 962.187 202.971 988.139 175.874C1014.09 148.777 1049.71 135.229 1095 135.229C1138.38 135.229 1172.35 148.714 1196.96 175.62C1221.58 202.525 1233.85 239.609 1233.85 286.869V316.446H1233.79ZM1152.44 257.8C1152.44 240.753 1147.22 227.332 1136.73 217.41C1126.29 207.55 1111.92 202.589 1093.73 202.589C1077.44 202.589 1064.09 207.741 1053.65 217.982C1043.22 228.223 1036.23 242.662 1032.73 261.235H1152.37V257.8H1152.44Z" fill="#062CFF"/>
<path d="M690.711 109.214C665.396 109.214 644.914 88.6684 644.914 63.4164C644.914 38.1007 665.459 17.6191 690.711 17.6191C716.027 17.6191 736.509 38.1643 736.509 63.4164C736.509 88.732 715.963 109.214 690.711 109.214Z" fill="#062CFF"/>
</svg>
