<svg xmlns="http://www.w3.org/2000/svg" width="128" height="64" viewBox="0 0 128 64">
    <path fill="none" d="M0 0H128V64H0z"/>
    <g>
        <g>
            <path d="M101.473 50.864V42.6h4.157v21.337h-4.157V54.47h-9.016v9.466H88.3V42.6h4.157v8.264z" transform="translate(0 11.47) translate(0 9.416) translate(-65.411 -42.149)"/>
            <path d="M148.357 63.937H144.2V42.6h4.157z" transform="translate(0 11.47) translate(0 9.416) translate(-93.313 -42.149)"/>
            <path d="M178.257 63.937H174.1V42.6h6.261c2.8 0 4.307.451 5.61 1.653a6.762 6.762 0 0 1 2.154 5.059c0 4.307-2.6 6.762-7.212 6.762h-2.7zm1.7-11.52c2.6 0 3.907-1 3.907-3.155s-1.3-3.055-4.157-3.055h-1.452v6.211z" transform="translate(0 11.47) translate(0 9.416) translate(-108.237 -42.149)"/>
            <path d="M216.211 58.98l-1.9 4.508H209.9l9.266-21.788h3.155l11.169 27.147-3.456 2.5-5.008-12.367zm4.458-11.019l-3.105 7.663h6.06z" transform="translate(0 11.47) translate(0 9.416) translate(-126.106 -41.7)"/>
            <path d="M50.864 50.414c-2.5-.952-3.306-1.5-3.306-2.655s1.4-2.4 3.155-2.4a4.958 4.958 0 0 1 3.857 1.653l1.352-3.055a9.316 9.316 0 0 0-5.91-2.054c-3.756 0-6.661 2.6-6.661 6.111s1.352 4.458 5.259 5.86a16.729 16.729 0 0 1 2.855 1.2 2.554 2.554 0 0 1 1.252 2.2 3.033 3.033 0 0 1-3.206 3.005 6.981 6.981 0 0 1-5.311-3.504l-1.6 3.706a8.126 8.126 0 0 0 7.062 3.606c4.307 0 7.363-2.855 7.363-7.012s-1.403-4.908-6.161-6.661z" transform="translate(0 11.47) translate(0 9.416) translate(-42.6 -41.8)"/>
        </g>
        <path d="M266.128 23.9l-6.862 16.23L250 61.967l5.009-2.054L270.736 22.9z" transform="translate(0 11.47) translate(-146.121 -22.9)"/>
    </g>
</svg>
