<svg width="1500" height="1245" viewBox="0 0 1500 1245" fill="none" xmlns="http://www.w3.org/2000/svg">
<g filter="url(#filter0_f_206_3)">
<path d="M716.773 411.741C658.813 538.961 620.933 573.483 502.709 573.483C384.485 573.483 264.689 525.585 264.689 436.257C195.91 288.804 384.485 250 502.709 250C620.933 250 716.773 322.414 716.773 411.741Z" fill="#327D59"/>
<path d="M1250 833.259C1192.04 960.478 1154.16 995 1035.94 995C917.712 995 797.916 947.102 797.916 857.775C729.137 710.321 917.712 671.517 1035.94 671.517C1154.16 671.517 1250 743.931 1250 833.259Z" fill="#327D59"/>
<path d="M798.416 857.664L798.369 857.563C781.216 820.789 780.14 790.864 789.929 766.652C799.723 742.428 820.43 723.828 847.033 709.793C900.251 681.717 976.855 672.018 1035.94 672.018C1094.95 672.018 1148.36 690.091 1187 719.289C1225.61 748.463 1249.46 788.721 1249.5 833.15C1220.54 896.703 1196.63 937.005 1165.26 961.442C1133.9 985.873 1095.01 994.5 1035.94 994.5C976.882 994.5 917.461 982.536 872.822 959.441C828.18 936.345 798.416 902.176 798.416 857.775V857.664ZM265.189 436.146L265.143 436.046C247.989 399.272 246.913 369.346 256.702 345.135C266.496 320.91 287.204 302.31 313.807 288.275C367.024 260.199 443.627 250.5 502.709 250.5C561.722 250.5 615.13 268.574 653.773 297.771C692.386 326.946 716.233 367.204 716.271 411.635C687.313 475.186 663.404 515.487 632.033 539.925C600.671 564.356 561.78 572.982 502.709 572.982C443.655 572.982 384.233 561.018 339.595 537.924C294.953 514.827 265.19 480.658 265.189 436.258V436.146Z" stroke="black"/>
</g>
<defs>
<filter id="filter0_f_206_3" x="0" y="0" width="1500" height="1245" filterUnits="userSpaceOnUse" color-interpolation-filters="sRGB">
<feFlood flood-opacity="0" result="BackgroundImageFix"/>
<feBlend mode="normal" in="SourceGraphic" in2="BackgroundImageFix" result="shape"/>
<feGaussianBlur stdDeviation="125" result="effect1_foregroundBlur_206_3"/>
</filter>
</defs>
</svg>
